<svg width="1440" height="658" viewBox="0 0 1440 658" fill="none" xmlns="http://www.w3.org/2000/svg">
<path d="M-18 657.176C-0.952854 443.224 37.5 55.1766 408.347 168.026C795.892 285.957 829.845 619.025 1104.58 561.119C1370 505.177 1429.99 355.213 1457 288.22" stroke="#64C7FF"/>
<path d="M-18 642.49C-0.952854 428.538 37.5 40.4903 408.347 153.34C795.892 271.271 829.845 604.339 1104.58 546.433C1370 490.49 1429.99 340.527 1457 273.534" stroke="#64C7FF"/>
<path d="M-18 627.803C-0.952854 413.852 37.5 25.804 408.347 138.654C795.892 256.584 829.845 589.653 1104.58 531.747C1370 475.804 1429.99 325.841 1457 258.847" stroke="#64C7FF"/>
<path d="M-18 613.117C-0.952854 399.165 37.5 11.1177 408.347 123.967C795.892 241.898 829.845 574.967 1104.58 517.06C1370 461.118 1429.99 311.155 1457 244.161" stroke="#64C7FF"/>
<path d="M-18 598.431C-0.952854 384.479 37.5 -3.56856 408.347 109.281C795.892 227.212 829.845 560.28 1104.58 502.374C1370 446.431 1429.99 296.468 1457 229.475" stroke="#64C7FF"/>
<path d="M-18 583.745C-0.952854 369.793 37.5 -18.2548 408.347 94.5948C795.892 212.525 829.845 545.594 1104.58 487.688C1370 431.745 1429.99 281.782 1457 214.789" stroke="#64C7FF"/>
<path d="M-18 569.058C-0.952854 355.107 37.5 -32.9411 408.347 79.9085C795.892 197.839 829.845 530.908 1104.58 473.002C1370 417.059 1429.99 267.096 1457 200.102" stroke="#64C7FF"/>
<path d="M-18 554.372C-0.952854 340.42 37.5 -47.6274 408.347 65.2222C795.892 183.153 829.845 516.222 1104.58 458.315C1370 402.373 1429.99 252.409 1457 185.416" stroke="#64C7FF"/>
<path d="M-18 539.686C-0.952854 325.734 37.5 -62.3137 408.347 50.536C795.892 168.467 829.845 501.535 1104.58 443.629C1370 387.686 1429.99 237.723 1457 170.73" stroke="#64C7FF"/>
<path d="M-18 524.999C-0.952854 311.048 37.5 -77 408.347 35.8497C795.892 153.78 829.845 486.849 1104.58 428.943C1370 373 1429.99 223.037 1457 156.044" stroke="#64C7FF"/>
<path d="M-18 510.313C-0.952854 296.361 37.5 -91.6862 408.347 21.1634C795.892 139.094 829.845 472.163 1104.58 414.257C1370 358.314 1429.99 208.351 1457 141.357" stroke="#64C7FF"/>
</svg>
